<svg width="31" height="25" viewBox="0 0 31 25" fill="none" xmlns="http://www.w3.org/2000/svg">
<path d="M25.1617 16.0714H13.0836C12.5274 16.0714 12.0782 15.6231 12.0782 15.0681C12.0782 14.7906 12.1905 14.5398 12.3723 14.3583C12.5568 14.1769 12.8082 14.0648 13.0836 14.0648H17.1105C17.6667 14.0648 18.1159 13.6165 18.1159 13.0615C18.1159 12.5065 17.6667 12.0582 17.1105 12.0582H15.097C14.5409 12.0582 14.0917 11.61 14.0917 11.055C14.0917 10.7774 14.2039 10.5266 14.3858 10.3452C14.5703 10.1637 14.8217 10.0517 15.097 10.0517H19.124C19.6802 10.0517 20.1294 9.60335 20.1294 9.04835C20.1294 8.49334 19.6802 8.04504 19.124 8.04504H17.1105C16.5543 8.04504 16.1051 7.59678 16.1051 7.04173C16.1051 6.76423 16.2174 6.51342 16.3993 6.33198C16.5838 6.15054 16.8351 6.03848 17.1105 6.03848H23.1483C23.7045 6.03848 24.1536 5.59017 24.1536 5.03517C24.1536 4.48017 23.7045 4.03186 23.1483 4.03186H17.1105C16.8752 4.03186 16.6586 3.94917 16.4848 3.81305C16.2522 3.62893 16.1051 3.34611 16.1051 3.02592C16.1051 2.74837 16.2174 2.49756 16.3993 2.31612C16.5758 2.14268 16.8137 2.0333 17.0784 2.02525V2.00925H29.1887C29.7448 2.00925 30.1942 1.56099 30.1942 1.00594C30.1942 0.450939 29.7448 0.00268426 29.1887 0.00268426H15.097C15.0917 0.00268426 15.089 0.00268399 15.0837 0.00531653C15.0784 -1.63834e-07 15.073 0 15.0649 0H3.01885C1.35034 0 0 1.3475 0 3.01255C0 4.67761 1.35034 6.02511 3.01885 6.02511H7.76511L1.20328 21.3067C0.633719 22.6329 1.60972 24.1058 3.05364 24.1058H15.0997C16.4126 24.1058 17.5276 23.2679 17.9421 22.0965H23.151C23.7071 22.0965 24.1563 21.6482 24.1563 21.0932C24.1563 20.5382 23.7071 20.0899 23.151 20.0899H11.0728C10.5166 20.0899 10.0674 19.6417 10.0674 19.0866C10.0674 18.8091 10.1797 18.5583 10.3615 18.3769C10.546 18.1954 10.7973 18.0833 11.0728 18.0833H25.1644C25.7206 18.0833 26.1698 17.6351 26.1698 17.0801C26.1698 16.5197 25.7179 16.0714 25.1617 16.0714ZM23.151 8.03435C22.5948 8.03435 22.1455 8.48266 22.1455 9.03766C22.1455 9.59266 22.5948 10.041 23.151 10.041H25.1644C25.7206 10.041 26.1698 9.59266 26.1698 9.03766C26.1698 8.48266 25.7206 8.03435 25.1644 8.03435H23.151ZM29.1887 20.0873H27.1752C26.619 20.0873 26.1698 20.5356 26.1698 21.0906C26.1698 21.6456 26.619 22.0939 27.1752 22.0939H29.1887C29.7448 22.0939 30.1942 21.6456 30.1942 21.0906C30.1968 20.5382 29.7448 20.0873 29.1887 20.0873Z" fill="white"/>
<path d="M7.56438 3.01255H12.3106L5.74876 18.2915C5.17925 19.6176 6.1552 21.0906 7.59912 21.0906H19.6452C20.5383 21.0906 21.3378 20.701 21.8913 20.0873H20.4207H11.0726C10.5164 20.0873 10.0672 19.639 10.0672 19.084C10.0672 18.8064 10.1795 18.5556 10.3613 18.3742C10.5458 18.1928 10.7972 18.0807 11.0726 18.0807H25.1642C25.7204 18.0807 26.1696 17.6324 26.1696 17.0774C26.1696 16.5224 25.7204 16.0741 25.1642 16.0741H13.0834C12.5272 16.0741 12.078 15.6258 12.078 15.0708C12.078 14.7933 12.1903 14.5425 12.3721 14.361C12.5566 14.1796 12.808 14.0675 13.0834 14.0675H17.1103C17.6665 14.0675 18.1158 13.6192 18.1158 13.0642C18.1158 12.5092 17.6665 12.0609 17.1103 12.0609H15.0969C14.5407 12.0609 14.0915 11.6126 14.0915 11.0576C14.0915 10.7801 14.2037 10.5293 14.3856 10.3478C14.5701 10.1664 14.8215 10.0543 15.0969 10.0543H19.1238C19.68 10.0543 20.1292 9.60603 20.1292 9.05103C20.1292 8.49598 19.68 8.04772 19.1238 8.04772H17.1103C16.5541 8.04772 16.105 7.59942 16.105 7.04442C16.105 6.76692 16.2172 6.5161 16.3991 6.33466C16.5836 6.15317 16.8349 6.04111 17.1103 6.04111H23.1481C23.7043 6.04111 24.1535 5.59285 24.1535 5.03785C24.1535 4.4828 23.7043 4.03455 23.1481 4.03455H17.1103C16.8751 4.03455 16.6585 3.9518 16.4846 3.81574C16.252 3.63161 16.105 3.34874 16.105 3.02856C16.105 2.75105 16.2172 2.50024 16.3991 2.3188C16.5756 2.14536 16.8135 2.03593 17.0783 2.02793V2.00925H29.1885C29.7447 2.00925 30.1942 1.56099 30.1942 1.00594C30.1942 0.450939 29.7447 0.00268426 29.1885 0.00268426H15.0969C15.0915 0.00268426 15.0888 0.00268399 15.0835 0.00531653C15.0782 -1.63834e-07 15.0728 0 15.0648 0H12.1555H4.54553C4.54553 1.66506 5.89587 3.01255 7.56438 3.01255Z" fill="white"/>
<path d="M23.1508 8.03433C22.5946 8.03433 22.1454 8.48264 22.1454 9.03764C22.1454 9.59264 22.5946 10.0409 23.1508 10.0409H25.1642C25.7204 10.0409 26.1697 9.59264 26.1697 9.03764C26.1697 8.48264 25.7204 8.03433 25.1642 8.03433H23.1508Z" fill="white"/>
</svg>
