<svg xmlns="http://www.w3.org/2000/svg" width="187.152" height="35.149" viewBox="0 0 187.152 35.149">
  <g id="Logo_joined_words" transform="translate(-2.685 -10.34)">
    <path id="Path_120326" data-name="Path 120326" d="M4.824,27.31c-1.1-4.589-1.27-10.316,1.951-14.126C9.681,9.86,13.341,9.34,16.8,12.208A8.988,8.988,0,0,1,19.616,16.1a15.809,15.809,0,0,1,.735,3c.3,1.931.46,3.824.656,5.746.288,2.814.6,5.647,1.026,8.433.449,2.624.793,5.388,2.229,7.547a5.3,5.3,0,0,0,3.823,2.185l.29.007c.029,0-.026,0-.013,0h.022A6.515,6.515,0,0,0,31.326,41.9c.065-.041.2-.13.256-.178.141-.1.364-.273.494-.387a6.17,6.17,0,0,0,1.593-2.195,29.945,29.945,0,0,0,2.164-7.961,104.684,104.684,0,0,0,1.019-14.183c.928,6.325,1.68,21.529-3.29,26.059a9.1,9.1,0,0,1-4.991,2.425,7.467,7.467,0,0,1-4.9-1.577c-2.516-1.894-3.326-5.145-3.912-8.051-.493-2.609-.8-5.259-1.074-7.9-.3-2.837-.429-5.691-.762-8.493a8.327,8.327,0,0,0-1.974-5.028C13.942,12.21,11.435,11.454,8.9,13.4a8.639,8.639,0,0,0-2.55,2.96C4.665,19.679,4.514,23.647,4.824,27.31Z" transform="translate(0.046)" fill="#f8cd46"/>
    <path id="Path_120327" data-name="Path 120327" d="M5.357,33.492a2.7,2.7,0,1,0-2.672-2.7A2.684,2.684,0,0,0,5.357,33.492Z" transform="translate(0 0.572)" fill="#f8cd46"/>
    <path id="Path_120328" data-name="Path 120328" d="M35.542,15.735a2.7,2.7,0,1,0-2.672-2.7A2.684,2.684,0,0,0,35.542,15.735Z" transform="translate(0.972 0)" fill="#f8cd46"/>
    <path id="Path_120329" data-name="Path 120329" d="M19.718,31.219a32.727,32.727,0,0,1,5.235-4.32c.756-.52,1.542-1.022,2.323-1.5a48.9,48.9,0,0,1,4.608,2.41,27.544,27.544,0,0,1,3.873,2.714c-.4-.063-.787-.15-1.171-.244a40.749,40.749,0,0,1-7.665-2.851l.935-.052q-.956.582-1.937,1.123A32.314,32.314,0,0,1,19.718,31.219Z" transform="translate(0.548 0.485)" fill="#f8cd46"/>
    <path id="Path_120330" data-name="Path 120330" d="M63.092,27.979H54.8v7.447H52.674V19H54.8v7.211h8.293V19h2.126V35.426H63.092Z" transform="translate(1.61 0.279)" fill="#f8cd46"/>
    <path id="Path_120331" data-name="Path 120331" d="M73.919,35.339c-3.621,0-6.377-2.593-6.377-6.693a6.473,6.473,0,1,1,12.942,0A6.378,6.378,0,0,1,73.919,35.339Zm0-1.886c2.22,0,4.392-1.531,4.392-4.808,0-3.253-2.126-4.784-4.321-4.784-2.242,0-4.275,1.531-4.275,4.784C69.714,31.922,71.7,33.453,73.919,33.453Z" transform="translate(2.088 0.375)" fill="#f8cd46"/>
    <path id="Path_120332" data-name="Path 120332" d="M101.273,27.844c0-2.64-1.4-3.982-3.5-3.982-2.149,0-3.621,1.391-3.621,4.171V35.15h-2.1V27.844c0-2.64-1.4-3.982-3.5-3.982-2.149,0-3.621,1.391-3.621,4.171V35.15H82.795V22.236h2.126V24.1A4.617,4.617,0,0,1,88.962,22a4.813,4.813,0,0,1,4.7,2.875A4.736,4.736,0,0,1,98.189,22c2.921,0,5.185,1.838,5.185,5.538V35.15h-2.1V27.844Z" transform="translate(2.579 0.375)" fill="#f8cd46"/>
    <path id="Path_120333" data-name="Path 120333" d="M111.666,35.339c-3.644,0-6.33-2.593-6.33-6.693,0-4.077,2.593-6.646,6.33-6.646a5.894,5.894,0,0,1,6.143,6.175,11.775,11.775,0,0,1-.07,1.3H107.508a4.039,4.039,0,0,0,4.159,4.053,3.518,3.518,0,0,0,3.6-2.38h2.288A5.761,5.761,0,0,1,111.666,35.339Zm-4.136-7.613h8.083a3.771,3.771,0,0,0-4.041-3.913A3.982,3.982,0,0,0,107.53,27.727Z" transform="translate(3.305 0.375)" fill="#f8cd46"/>
    <path id="Path_120334" data-name="Path 120334" d="M126.356,35.8c-3.271,0-5.583-1.838-5.63-4.549h2.266a3.025,3.025,0,0,0,3.364,2.733c2.055,0,3.27-1.178,3.27-2.733,0-4.431-8.806-1.6-8.806-7.706,0-2.711,2.172-4.548,5.4-4.548,3.107,0,5.138,1.72,5.4,4.218h-2.337a2.955,2.955,0,0,0-3.154-2.38c-1.751-.047-3.13.871-3.13,2.64,0,4.242,8.784,1.6,8.784,7.682C131.774,33.493,129.882,35.8,126.356,35.8Z" transform="translate(3.801 0.279)" fill="#f8cd46"/>
    <path id="Path_120335" data-name="Path 120335" d="M134.462,18h2.125v6.386a4.8,4.8,0,0,1,4.229-2.1c2.85,0,5.117,1.838,5.117,5.538v7.613h-2.1V28.133c0-2.64-1.424-3.982-3.574-3.982-2.172,0-3.667,1.367-3.667,4.148v7.14h-2.125Z" transform="translate(4.243 0.247)" fill="#f8cd46"/>
    <path id="Path_120336" data-name="Path 120336" d="M154.249,22a5.3,5.3,0,0,1,4.767,2.569V22.211h2.149V35.126h-2.149v-2.4a5.337,5.337,0,0,1-4.789,2.616c-3.409,0-6.05-2.711-6.05-6.717C148.175,24.593,150.816,22,154.249,22Zm.419,1.862c-2.336,0-4.321,1.72-4.321,4.76s1.985,4.831,4.321,4.831,4.346-1.767,4.346-4.808C159.014,25.653,157.005,23.862,154.669,23.862Z" transform="translate(4.685 0.375)" fill="#f8cd46"/>
    <path id="Path_120337" data-name="Path 120337" d="M166.369,35.15h-2.125V22.236h2.125v2.1A4.307,4.307,0,0,1,170.5,22v2.215h-.562c-2.032,0-3.574.92-3.574,3.913V35.15Z" transform="translate(5.202 0.375)" fill="#f8cd46"/>
    <path id="Path_120338" data-name="Path 120338" d="M178.245,35.339c-3.644,0-6.33-2.593-6.33-6.693,0-4.077,2.593-6.646,6.33-6.646a5.894,5.894,0,0,1,6.143,6.175,11.777,11.777,0,0,1-.07,1.3H174.087a4.039,4.039,0,0,0,4.159,4.053,3.518,3.518,0,0,0,3.6-2.38h2.288A5.759,5.759,0,0,1,178.245,35.339Zm-4.135-7.613h8.083a3.771,3.771,0,0,0-4.041-3.913A3.982,3.982,0,0,0,174.11,27.727Z" transform="translate(5.449 0.375)" fill="#f8cd46"/>
  </g>
</svg>
